<svg width="750" height="750" viewBox="0 0 750 750" fill="none" xmlns="http://www.w3.org/2000/svg">
<circle cx="373" cy="375" r="247.5" stroke="black" stroke-width="5"/>
<path d="M357.304 90.904V93.604H367.888V90.904H357.304ZM375.34 82.444V109.12C375.34 113.008 376.348 114.088 379.696 114.088C380.416 114.088 384.736 114.088 385.492 114.088C389.02 114.088 389.74 111.748 390.064 105.16C389.308 104.98 388.156 104.44 387.472 103.9C387.22 109.876 386.968 111.424 385.312 111.424C384.376 111.424 380.776 111.424 379.984 111.424C378.436 111.424 378.112 111.064 378.112 109.192V82.444H375.34ZM366.556 82.444V114.592H369.328V82.444H366.556ZM387.076 87.988C384.376 90.472 379.912 93.532 375.916 95.728C376.312 96.304 376.852 97.24 377.068 97.852C381.136 95.62 385.744 92.884 389.056 90.328L387.076 87.988ZM356.188 107.608L357.448 110.308C360.544 109.012 364.612 107.32 368.392 105.664L367.888 103.216C363.604 104.908 359.104 106.636 356.188 107.608Z" fill="black"/>
<path d="M357.16 635.396V637.952H388.876V635.396H357.16ZM364.576 649.832V652.028H381.604V649.832H364.576ZM363.82 655.7V657.968H382.252V655.7H363.82ZM371.56 650.876V664.196H374.152V650.876H371.56ZM359.104 641.732V664.844H361.804V644.252H385.132V641.732H359.104ZM384.196 641.732V661.748C384.196 662.324 384.052 662.504 383.404 662.54C382.756 662.576 380.524 662.576 378.256 662.468C378.652 663.152 379.084 664.196 379.228 664.916C382.18 664.916 384.232 664.88 385.384 664.484C386.572 664.088 386.968 663.332 386.968 661.748V641.732H384.196ZM366.376 645.44C367.276 646.772 368.212 648.608 368.572 649.832L370.84 649.004C370.444 647.816 369.508 646.052 368.536 644.756L366.376 645.44ZM377.392 644.72C376.78 646.268 375.664 648.536 374.764 650.012L376.708 650.66C377.644 649.292 378.76 647.276 379.696 645.404L377.392 644.72ZM371.488 631.796V643.424H374.476V631.796H371.488Z" fill="black"/>
<path d="M85.436 384.984V387.504H110.924V384.984H85.436ZM83.672 366.948V389.736H86.3V369.468H109.736V389.628H112.472V366.948H83.672ZM100.232 368.1V375.732C100.232 378.324 100.88 379.044 103.544 379.044C104.084 379.044 106.532 379.044 107.108 379.044C109.124 379.044 109.844 378.216 110.132 374.868C109.412 374.688 108.332 374.292 107.828 373.896C107.756 376.308 107.576 376.632 106.784 376.632C106.28 376.632 104.3 376.632 103.904 376.632C103.004 376.632 102.86 376.524 102.86 375.732V368.1H100.232ZM82.124 359.136V361.764H113.768V359.136H82.124ZM92.312 360.9V368.388H94.94V360.9H92.312ZM100.268 360.9V368.388H102.968V360.9H100.268ZM92.42 367.668V371.124C92.42 373.86 91.52 377.028 86.588 379.404C87.128 379.764 88.136 380.664 88.496 381.204C93.752 378.576 94.94 374.58 94.94 371.196V367.668H92.42Z" fill="black"/>
<path d="M632.34 360.216V362.736H663.804V360.216H632.34ZM646.488 356.796V389.88H649.296V356.796H646.488ZM645.66 377.424C642.6 381.384 636.696 385.236 631.44 387.072C632.088 387.612 632.916 388.656 633.348 389.34C638.604 387.18 644.544 382.968 647.928 378.432L645.66 377.424ZM650.196 377.46L648 378.468C651.384 382.968 657.396 387.288 662.724 389.412C663.156 388.656 663.984 387.612 664.632 387.072C659.304 385.272 653.292 381.42 650.196 377.46ZM638.136 373.392H658.152V376.848H638.136V373.392ZM638.136 367.92H658.152V371.34H638.136V367.92ZM635.508 365.796V379.008H660.888V365.796H635.508Z" fill="black"/>
<path d="M373 7L394.651 67H351.349L373 7Z" fill="#E90000"/>
<line x1="373.5" y1="129" x2="373.5" y2="625" stroke="black"/>
<line x1="129.002" y1="374.5" x2="618.002" y2="376.48" stroke="black"/>
<path d="M273 129L265.464 186.241L318.804 164.147L273 129ZM370.219 376.772C371.275 379.324 374.2 380.535 376.752 379.478C379.303 378.422 380.514 375.497 379.458 372.946L370.219 376.772ZM285.601 172.488L370.219 376.772L379.458 372.946L294.84 168.661L285.601 172.488Z" fill="#FF6E05"/>
<path d="M221.288 55.6H238.388V57.436H221.288V55.6ZM221.288 50.776H238.388V52.612H221.288V50.776ZM217.22 47.572V60.604H242.636V47.572H217.22ZM227.696 39.436V58.984H231.944V39.436H227.696ZM222.512 63.088V67.768C222.512 71.476 223.556 72.664 228.128 72.664C229.064 72.664 232.772 72.664 233.744 72.664C237.164 72.664 238.352 71.584 238.856 67.192C237.704 66.976 235.868 66.328 235.04 65.68C234.896 68.416 234.608 68.812 233.348 68.812C232.376 68.812 229.388 68.812 228.668 68.812C227.048 68.812 226.76 68.704 226.76 67.696V63.088H222.512ZM225.32 62.008C227.552 63.232 230.18 65.212 231.404 66.652L234.356 63.916C233.024 62.44 230.288 60.64 228.092 59.524L225.32 62.008ZM237.02 64.132C239.576 66.4 242.132 69.676 243.104 71.944L246.956 69.82C245.84 67.408 243.104 64.348 240.548 62.188L237.02 64.132ZM217.436 62.656C216.68 65.392 215.168 67.984 212.972 69.568L216.392 72.34C218.984 70.324 220.388 67.156 221.252 64.024L217.436 62.656ZM214.772 42.028V45.808H245.012V42.028H214.772ZM249.656 45.196V49.336H282.308V45.196H249.656ZM261.68 54.016V58.12H275.468V54.016H261.68ZM273.884 54.016L273.848 54.7C273.344 63.592 272.66 67.696 271.58 68.632C271.112 69.028 270.608 69.064 269.816 69.064C268.772 69.064 266.216 69.064 263.732 68.848C264.56 70.036 265.208 71.836 265.28 73.096C267.692 73.168 270.104 73.204 271.472 73.096C273.128 72.916 274.28 72.556 275.36 71.404C276.8 69.82 277.556 65.752 278.204 55.888C278.312 55.312 278.348 54.016 278.348 54.016H273.884ZM260.06 47.644C259.7 55.852 259.484 64.996 249.008 69.856C250.16 70.756 251.456 72.34 252.104 73.492C263.408 67.804 264.38 57.292 264.92 47.644H260.06ZM263.552 39.256V46.816H268.016V39.256H263.552ZM183.576 101.98V101.594C183.576 99.1211 183.834 96.877 184.35 94.8613C184.877 92.8457 185.568 91.0762 186.424 89.5527C187.291 88.0176 188.234 86.7461 189.254 85.7383C190.273 84.7305 191.287 84.0039 192.295 83.5586L193.262 86.2305C192.594 86.7227 191.938 87.4023 191.293 88.2695C190.648 89.125 190.062 90.1797 189.535 91.4336C189.02 92.6758 188.604 94.1406 188.287 95.8281C187.971 97.5039 187.812 99.4141 187.812 101.559V102.016C187.812 104.16 187.971 106.076 188.287 107.764C188.604 109.439 189.02 110.904 189.535 112.158C190.062 113.424 190.648 114.49 191.293 115.357C191.938 116.225 192.594 116.91 193.262 117.414L192.295 120.016C191.287 119.57 190.273 118.844 189.254 117.836C188.234 116.84 187.291 115.574 186.424 114.039C185.568 112.516 184.877 110.746 184.35 108.73C183.834 106.703 183.576 104.453 183.576 101.98ZM195.945 89.968V94.288H206.637V89.968H195.945ZM213.549 82.048V107.932C213.549 113.044 214.773 114.556 218.913 114.556C219.705 114.556 222.873 114.556 223.737 114.556C227.805 114.556 228.885 111.892 229.281 104.98C228.093 104.692 226.221 103.828 225.177 103C224.925 108.832 224.673 110.308 223.305 110.308C222.657 110.308 220.173 110.308 219.561 110.308C218.265 110.308 218.049 110.02 218.049 108.004V82.048H213.549ZM204.513 82.012V114.844H209.013V82.012H204.513ZM225.465 87.412C222.585 89.86 218.373 92.956 214.449 94.972C215.061 95.908 215.889 97.42 216.213 98.392C220.281 96.34 224.853 93.82 228.561 91.3L225.465 87.412ZM194.685 106.312L196.593 110.74C199.761 109.444 203.685 107.824 207.285 106.204L206.493 102.28C202.173 103.828 197.601 105.448 194.685 106.312ZM231.945 89.968V94.288H242.637V89.968H231.945ZM249.549 82.048V107.932C249.549 113.044 250.773 114.556 254.913 114.556C255.705 114.556 258.873 114.556 259.737 114.556C263.805 114.556 264.885 111.892 265.281 104.98C264.093 104.692 262.221 103.828 261.177 103C260.925 108.832 260.673 110.308 259.305 110.308C258.657 110.308 256.173 110.308 255.561 110.308C254.265 110.308 254.049 110.02 254.049 108.004V82.048H249.549ZM240.513 82.012V114.844H245.013V82.012H240.513ZM261.465 87.412C258.585 89.86 254.373 92.956 250.449 94.972C251.061 95.908 251.889 97.42 252.213 98.392C256.281 96.34 260.853 93.82 264.561 91.3L261.465 87.412ZM230.685 106.312L232.593 110.74C235.761 109.444 239.685 107.824 243.285 106.204L242.493 102.28C238.173 103.828 233.601 105.448 230.685 106.312ZM271.905 109.084V113.044H296.349V109.084H271.905ZM269.169 91.48V115.096H273.345V95.44H294.477V115.06H298.869V91.48H269.169ZM285.405 93.1V99.616C285.405 103.216 286.125 104.368 289.653 104.368C290.337 104.368 291.921 104.368 292.641 104.368C295.053 104.368 296.133 103.504 296.601 100.228C295.485 99.976 293.757 99.328 293.037 98.752C292.929 100.336 292.785 100.624 292.137 100.624C291.813 100.624 290.625 100.624 290.337 100.624C289.653 100.624 289.545 100.516 289.545 99.58V93.1H285.405ZM267.693 83.416V87.592H300.057V83.416H267.693ZM277.557 86.584V93.748H281.805V86.584H277.557ZM285.441 86.584V93.748H289.761V86.584H285.441ZM277.773 92.272V95.728C277.773 98.32 277.161 101.272 272.625 103.468C273.489 104.008 275.181 105.448 275.757 106.24C280.725 103.648 281.805 99.436 281.805 95.872V92.272H277.773ZM312.635 101.594V101.98C312.635 104.371 312.365 106.574 311.826 108.59C311.287 110.594 310.572 112.369 309.682 113.916C308.803 115.475 307.836 116.77 306.781 117.801C305.738 118.832 304.695 119.57 303.652 120.016L302.668 117.414C303.336 116.922 303.986 116.242 304.619 115.375C305.264 114.508 305.85 113.441 306.377 112.176C306.904 110.922 307.32 109.451 307.625 107.764C307.941 106.076 308.1 104.16 308.1 102.016V101.559C308.1 99.4141 307.941 97.498 307.625 95.8105C307.309 94.123 306.881 92.6523 306.342 91.3984C305.814 90.1328 305.229 89.0723 304.584 88.2168C303.951 87.3496 303.312 86.6699 302.668 86.1777L303.652 83.5586C304.695 84.0039 305.738 84.748 306.781 85.791C307.836 86.8223 308.803 88.1113 309.682 89.6582C310.572 91.2051 311.287 92.9863 311.826 95.002C312.365 97.0059 312.635 99.2031 312.635 101.594Z" fill="#FF6E05"/>
</svg>
